<svg xmlns="http://www.w3.org/2000/svg" width="32" height="32" viewBox="0 0 32 32">
    <g fill="none" fill-rule="evenodd">
        <path fill="#FFF" stroke="#979797" stroke-opacity=".111" d="M1 16C1 7.716 7.716 1 16 1c8.284 0 15 6.716 15 15 0 8.284-6.716 15-15 15-8.284 0-15-6.716-15-15z"/>
        <path fill="#32FC8D" d="M18.638 9.515c-.076-.039-.138 0-.138.086v10.546l4.585 2.309c.228.115.415-.002.415-.259V12.046a.134.134 0 0 0-.073-.12l-4.789-2.411"/>
        <path fill="#0BE370" d="M13.5 17.517l4.942-7.938a.175.175 0 0 1 .221-.062l4.774 2.36c.06.029.081.102.046.158L18.524 20 13.5 17.517"/>
        <path fill="#14C767" d="M8.825 9.568c-.312-.153-.418-.04-.235.253l4.789 7.659L18.5 20l-5.088-8.138a.22.22 0 0 0-.09-.08L8.825 9.568"/>
        <path fill="#00AB6C" d="M13.5 22.196c0 .258-.187.375-.415.26l-4.308-2.18a.557.557 0 0 1-.277-.452V9.703c0-.172.125-.25.277-.173l4.661 2.357c.038.02.062.058.062.101v10.208"/>
    </g>
</svg>
