<svg xmlns="http://www.w3.org/2000/svg" width="110" height="20" viewBox="0 0 110 20">
    <g fill="none" fill-rule="evenodd">
        <path fill="#FF9532" d="M9.83 13.084H6.555V6.542h6.553v6.542H9.831zm0 3.272h6.554V3.272H3.277V13.083H0V0h19.661V19.626H6.554v-3.27H9.83zm-9.83 0h3.277v3.27H0v-3.27z"/>
        <path fill="#000" d="M27.956 4.416c1.364 0 2.42.334 3.167 1.002.748.668 1.121 1.58 1.121 2.735 0 .662-.128 1.283-.386 1.86-.258.578-.677 1.052-1.258 1.424-.58.372-1.33.558-2.25.558h-1.576v3.51h-2.197V4.416h3.379zm.379 5.454c.414 0 .747-.093 1-.279.252-.185.434-.404.545-.655.112-.251.167-.492.167-.723 0-.392-.116-.771-.348-1.138-.233-.366-.682-.55-1.35-.55h-1.575V9.87h1.56zM36.614 4.416v8.98h5.264v2.11h-7.47V4.415zM50.678 13.344h-3.676l-.905 2.161h-2.154l5.002-11.482h.12l5.003 11.482h-2.531l-.859-2.161zm-.723-1.831l-1.07-2.687-1.115 2.687h2.185zM64.292 4.416l-4.156 7.639v3.45h-2.183v-3.45l-4.081-7.639h2.695l2.545 5.123 2.485-5.123z"/>
        <path fill="#FF9532" d="M74.81 14.373c-.17.18-.472.367-.907.562a8.108 8.108 0 0 1-1.44.48 6.236 6.236 0 0 1-1.434.188c-1.17 0-2.198-.227-3.083-.683-.886-.455-1.569-1.085-2.049-1.89-.48-.806-.72-1.724-.72-2.754 0-1.29.255-2.384.765-3.28.51-.895 1.196-1.565 2.056-2.01.86-.446 1.81-.668 2.851-.668.67 0 1.3.075 1.891.225.59.15 1.11.345 1.56.585l-.705 2.026c-.29-.16-.687-.307-1.193-.443-.505-.135-.927-.202-1.268-.202-1.2 0-2.118.3-2.753.9-.636.6-.953 1.491-.953 2.672 0 .68.155 1.273.465 1.778.31.505.743.893 1.298 1.163s1.188.405 1.898.405c.68 0 1.186-.095 1.516-.285v-1.336h-1.906v-2.1h4.112v4.667zM83.61 13.344h-3.676l-.904 2.161h-2.155l5.003-11.482h.12l5.003 11.482h-2.532l-.858-2.161zm-.723-1.831l-1.07-2.687-1.114 2.687h2.184zM100.37 4.023v11.482h-2.18v-5.261l-3.612 5.111h-.03l-3.475-4.781v4.931h-2.106V4.023h.015l5.612 7.93 5.746-7.93zM109.695 4.416v2.11h-5.373V8.89h4.756V11h-4.756v2.395h5.584v2.11h-7.766V4.415z"/>
    </g>
</svg>
