<svg xmlns="http://www.w3.org/2000/svg" width="31" height="30" viewBox="0 0 31 30">
    <g fill="none" fill-rule="evenodd">
        <path fill="#CE1312" d="M0 15C0 6.716 6.836 0 15.268 0s15.268 6.716 15.268 15c0 8.284-6.836 15-15.268 15S0 23.284 0 15z"/>
        <path fill="#FFF" d="M23.214 11.98s-.159-1.126-.646-1.622c-.618-.652-1.312-.655-1.63-.692C18.664 9.5 15.25 9.5 15.25 9.5h-.007s-3.413 0-5.689.166c-.318.037-1.01.04-1.63.692-.487.496-.646 1.623-.646 1.623s-.162 1.323-.162 2.646v1.24c0 1.324.162 2.647.162 2.647s.159 1.126.646 1.622c.62.652 1.432.632 1.794.7 1.3.125 5.529.164 5.529.164s3.417-.005 5.693-.17c.317-.039 1.01-.042 1.629-.694.487-.496.646-1.622.646-1.622s.163-1.323.163-2.647v-1.24c0-1.323-.163-2.646-.163-2.646z"/>
        <path fill="#CE1312" d="M13.567 17.37v-4.593l4.393 2.305z"/>
    </g>
</svg>
